<svg width="15" height="22" viewBox="0 0 15 22" fill="none" xmlns="http://www.w3.org/2000/svg">
<path d="M7.632 19.24C6.128 19.24 4.816 18.992 3.696 18.496C2.592 17.984 1.64 17.24 0.839996 16.264L2.736 13.48C3.584 14.472 4.408 15.168 5.208 15.568C6.024 15.968 6.904 16.168 7.848 16.168C8.344 16.168 8.784 16.104 9.168 15.976C9.568 15.832 9.88 15.632 10.104 15.376C10.328 15.12 10.44 14.816 10.44 14.464C10.44 14.208 10.384 13.976 10.272 13.768C10.16 13.544 10 13.352 9.792 13.192C9.584 13.016 9.336 12.864 9.048 12.736C8.76 12.592 8.44 12.472 8.088 12.376C7.736 12.264 7.352 12.176 6.936 12.112C5.736 11.856 4.736 11.496 3.936 11.032C3.152 10.568 2.56 9.99199 2.16 9.30399C1.776 8.61599 1.584 7.79999 1.584 6.85599C1.584 6.13599 1.744 5.47199 2.064 4.86399C2.384 4.23999 2.824 3.70399 3.384 3.25599C3.96 2.80799 4.616 2.46399 5.352 2.22399C6.104 1.98399 6.896 1.86399 7.728 1.86399C9.072 1.86399 10.256 2.08799 11.28 2.53599C12.32 2.96799 13.216 3.63999 13.968 4.55198L12.24 7.04799C11.648 6.35999 10.968 5.83999 10.2 5.48799C9.448 5.13599 8.648 4.95999 7.8 4.95999C7.272 4.95999 6.816 5.03199 6.432 5.17599C6.048 5.30399 5.744 5.49599 5.52 5.75199C5.312 6.00799 5.208 6.31999 5.208 6.68799C5.208 6.97599 5.28 7.23199 5.424 7.45599C5.568 7.67999 5.776 7.87999 6.048 8.05599C6.32 8.21599 6.648 8.35999 7.032 8.48799C7.416 8.61599 7.84 8.72799 8.304 8.82399C9.184 8.99999 9.976 9.23199 10.68 9.51999C11.384 9.80799 11.984 10.16 12.48 10.576C12.992 10.976 13.384 11.456 13.656 12.016C13.928 12.56 14.064 13.176 14.064 13.864C14.064 15 13.792 15.968 13.248 16.768C12.704 17.568 11.952 18.184 10.992 18.616C10.032 19.032 8.912 19.24 7.632 19.24ZM6.192 21.184L6.384 10.096L8.424 10.888L8.616 21.184H6.192ZM9.144 10.912L7.104 10.12L6.912 0.135986H9.336L9.144 10.912Z" fill="black"/>
</svg>
