<svg width="36" height="19" viewBox="0 0 36 19" fill="none" xmlns="http://www.w3.org/2000/svg">
<path d="M0.70401 18V5.30399H3.99201L4.11201 9.38399L3.53601 8.54399C3.72801 7.88799 4.04001 7.29599 4.47201 6.76799C4.90401 6.22399 5.40801 5.79999 5.98401 5.49599C6.57601 5.19199 7.19201 5.03999 7.83201 5.03999C8.10401 5.03999 8.36801 5.06399 8.62401 5.11199C8.88001 5.15999 9.09601 5.21599 9.27201 5.27999L8.36001 9.02399C8.16801 8.92799 7.93601 8.84799 7.66401 8.78399C7.39201 8.70399 7.11201 8.66399 6.82401 8.66399C6.44001 8.66399 6.08001 8.73599 5.74401 8.87999C5.42401 9.00799 5.14401 9.19999 4.90401 9.45599C4.66401 9.69599 4.47201 9.98399 4.32801 10.32C4.20001 10.656 4.13601 11.024 4.13601 11.424V18H0.70401Z" fill="black"/>
<path d="M15.4994 18.24C14.3154 18.24 13.2594 18.048 12.3314 17.664C11.4194 17.264 10.6834 16.72 10.1234 16.032L12.2354 14.208C12.7314 14.736 13.2834 15.12 13.8914 15.36C14.4994 15.584 15.1074 15.696 15.7154 15.696C15.9554 15.696 16.1714 15.672 16.3634 15.624C16.5714 15.56 16.7474 15.48 16.8914 15.384C17.0354 15.272 17.1394 15.144 17.2034 15C17.2834 14.84 17.3234 14.672 17.3234 14.496C17.3234 14.144 17.1794 13.864 16.8914 13.656C16.7314 13.576 16.4834 13.48 16.1474 13.368C15.8114 13.24 15.3794 13.104 14.8514 12.96C14.0354 12.752 13.3394 12.512 12.7634 12.24C12.2034 11.952 11.7554 11.632 11.4194 11.28C11.1314 10.944 10.9074 10.584 10.7474 10.2C10.6034 9.79999 10.5314 9.35999 10.5314 8.87999C10.5314 8.30399 10.6594 7.78399 10.9154 7.31999C11.1714 6.83999 11.5234 6.43199 11.9714 6.09599C12.4354 5.75999 12.9634 5.50399 13.5554 5.32799C14.1474 5.13599 14.7714 5.03999 15.4274 5.03999C16.0834 5.03999 16.7234 5.11999 17.3474 5.27999C17.9714 5.43999 18.5474 5.67199 19.0754 5.97599C19.6194 6.26399 20.0914 6.60799 20.4914 7.00799L18.6674 9.02399C18.3794 8.75199 18.0514 8.50399 17.6834 8.27999C17.3314 8.05599 16.9634 7.87999 16.5794 7.75199C16.1954 7.62399 15.8514 7.55999 15.5474 7.55999C15.2754 7.55999 15.0274 7.58399 14.8034 7.63199C14.5954 7.67999 14.4194 7.75199 14.2754 7.84799C14.1314 7.94399 14.0194 8.07199 13.9394 8.23199C13.8754 8.37599 13.8434 8.53599 13.8434 8.71199C13.8434 8.88799 13.8834 9.05599 13.9634 9.21599C14.0594 9.37599 14.1874 9.51199 14.3474 9.62399C14.5234 9.71999 14.7794 9.83199 15.1154 9.95999C15.4674 10.088 15.9394 10.232 16.5314 10.392C17.2994 10.6 17.9474 10.832 18.4754 11.088C19.0194 11.344 19.4514 11.64 19.7714 11.976C20.0434 12.264 20.2434 12.592 20.3714 12.96C20.4994 13.328 20.5634 13.736 20.5634 14.184C20.5634 14.968 20.3394 15.672 19.8914 16.296C19.4594 16.904 18.8594 17.384 18.0914 17.736C17.3234 18.072 16.4594 18.24 15.4994 18.24Z" fill="black"/>
<path d="M27.9611 18.24C26.8571 18.24 25.8651 17.96 24.9851 17.4C24.1051 16.824 23.4091 16.048 22.8971 15.072C22.4011 14.08 22.1531 12.936 22.1531 11.64C22.1531 10.376 22.4011 9.24799 22.8971 8.25599C23.4091 7.26399 24.0971 6.47999 24.9611 5.90399C25.8411 5.32799 26.8411 5.03999 27.9611 5.03999C28.5531 5.03999 29.1211 5.13599 29.6651 5.32799C30.2251 5.50399 30.7211 5.75199 31.1531 6.07199C31.6011 6.39199 31.9611 6.75199 32.2331 7.15199C32.5051 7.53599 32.6571 7.94399 32.6891 8.37599L31.8251 8.51999V0.23999H35.2331V18H32.0171L31.8731 15.072L32.5451 15.144C32.5131 15.544 32.3691 15.928 32.1131 16.296C31.8571 16.664 31.5131 17 31.0811 17.304C30.6651 17.592 30.1851 17.824 29.6411 18C29.1131 18.16 28.5531 18.24 27.9611 18.24ZM28.7291 15.408C29.3691 15.408 29.9291 15.248 30.4091 14.928C30.8891 14.608 31.2651 14.168 31.5371 13.608C31.8091 13.048 31.9451 12.392 31.9451 11.64C31.9451 10.904 31.8091 10.256 31.5371 9.69599C31.2651 9.11999 30.8891 8.67999 30.4091 8.37599C29.9291 8.05599 29.3691 7.89599 28.7291 7.89599C28.0891 7.89599 27.5291 8.05599 27.0491 8.37599C26.5851 8.67999 26.2171 9.11999 25.9451 9.69599C25.6891 10.256 25.5611 10.904 25.5611 11.64C25.5611 12.392 25.6891 13.048 25.9451 13.608C26.2171 14.168 26.5851 14.608 27.0491 14.928C27.5291 15.248 28.0891 15.408 28.7291 15.408Z" fill="black"/>
</svg>
