<svg width="26" height="32" viewBox="0 0 26 32" fill="none" xmlns="http://www.w3.org/2000/svg">
<g clip-path="url(#clip0_151_536)">
<path d="M25.9 2.3L17.3 14.3L13.2 11.4L21.4 0H3C1.3 0 0 1.3 0 3V29C0 30.7 1.3 32 3 32H23C24.6 32 26 30.7 26 29V3C26 2.8 26 2.5 25.9 2.3ZM6.3 28.6H3.3V23.3H6.2V23.9H4V25.6H6.1V26.2H4V28H6.3V28.6ZM9.8 28.6V27.9C9.6 28.3 9.1 28.7 8.5 28.7C7.6 28.7 6.9 27.9 6.9 26.7C6.9 25.4 7.7 24.7 8.6 24.7C9.2 24.7 9.6 25 9.7 25.3V23H10.4V27.6C10.4 27.9 10.4 28.3 10.4 28.6H9.8ZM12.3 28.6H11.6V24.8H12.3V28.6ZM11.9 24.1C11.6 24.1 11.5 23.9 11.5 23.7C11.5 23.5 11.7 23.3 11.9 23.3C12.2 23.3 12.3 23.3759 12.3 23.5759C12.3 23.9777 12.2 24.1 11.9 24.1ZM15.3 25.3H14.3V27.4C14.3 27.9 14.4 28.1 14.8 28.1C15 28.1 15.1 28.1 15.2 28.1V28.6C15.1 28.7 14.9 28.7 14.6 28.7C14.3 28.7 14 28.6 13.8 28.4C13.6 28.2 13.5 27.9 13.5 27.4V25.3H13V24.8H13.6V23.9L14.3 23.7V24.8H15.3V25.3ZM15.9 16.3L11.6 19.2C11.1 19.5 10.5 19.1 10.7 18.6L12.1 13.5C12.2 13.1 12.7 12.9 13 13.2L16 15.3C16.2 15.5 16.2 16 15.9 16.3ZM8.7 25.2C8 25.2 7.5 25.8 7.5 26.7C7.5 27.5 7.9 28.1 8.6 28.1C9.1 28.1 9.5 27.8 9.6 27.3C9.6 27.2 9.6 27.1 9.6 27V26.3C9.6 26.2 9.6 26.1 9.6 26C9.6 25.6 9.2 25.2 8.7 25.2Z" fill="black"/>
</g>
<defs>
<clipPath id="clip0_151_536">
<rect width="26" height="32" fill="white"/>
</clipPath>
</defs>
</svg>
