<svg width="34" height="44" viewBox="0 0 34 44" fill="none" xmlns="http://www.w3.org/2000/svg">
<path d="M28 41.363C27.8682 42.8463 26.6816 44 25.2396 44H2.77693C1.24426 44 0 42.6902 0 41.0767V7.87989C0 6.43127 1.0053 5.22553 2.32372 5C2.30724 5.09542 2.30724 5.19084 2.30724 5.27758V38.4744C2.30724 40.0879 3.5515 41.3977 5.08417 41.3977H27.555C27.7034 41.3977 27.8599 41.3803 28 41.363Z" fill="#F9F9F9"/>
<path d="M31.2173 1H8.77448C7.24316 1 6 2.27511 6 3.83733V36.1542C6 37.7249 7.24316 39 8.77448 39H31.2255C31.2749 39 31.3161 39 31.3655 39C32.8309 38.924 34 37.6827 34 36.1627V3.83733C33.9918 2.27511 32.7486 1 31.2173 1ZM29.052 27.1609C28.9944 27.1693 28.945 27.1778 28.8874 27.1778H10.6927C10.1905 27.1778 9.78712 26.764 9.78712 26.2489C9.78712 25.7338 10.1905 25.32 10.6927 25.32H28.8874C28.945 25.32 28.9944 25.3284 29.052 25.3369C29.4719 25.4129 29.793 25.7929 29.793 26.2489C29.793 26.7049 29.4719 27.0849 29.052 27.1609ZM29.052 21.7564C28.9944 21.7649 28.945 21.7733 28.8874 21.7733H10.6927C10.1905 21.7733 9.78712 21.3596 9.78712 20.8444C9.78712 20.3293 10.1905 19.9156 10.6927 19.9156H28.8874C28.945 19.9156 28.9944 19.924 29.052 19.9324C29.4719 20.0084 29.793 20.3884 29.793 20.8444C29.793 21.3004 29.4719 21.6804 29.052 21.7564ZM29.052 16.352C28.9944 16.3604 28.945 16.3689 28.8874 16.3689H10.6927C10.1905 16.3689 9.78712 15.9551 9.78712 15.44C9.78712 14.9249 10.1905 14.5111 10.6927 14.5111H28.8874C28.945 14.5111 28.9944 14.5196 29.052 14.528C29.4719 14.604 29.793 14.984 29.793 15.44C29.793 15.896 29.4719 16.276 29.052 16.352Z" fill="#F9F9F9"/>
</svg>
