<svg width="62" height="74" viewBox="0 0 62 74" fill="none" xmlns="http://www.w3.org/2000/svg">
<g clip-path="url(#clip0_147_535)">
<path d="M41.1355 35.7526C41.0195 37.0168 39.9755 38 38.7068 38H18.9433C17.5948 38 16.5 36.8837 16.5 35.5086V7.21558C16.5 5.98095 17.3845 4.95333 18.5445 4.76111C18.53 4.84243 18.53 4.92375 18.53 4.99768V33.2907C18.53 34.6658 19.6248 35.7821 20.9733 35.7821H40.744C40.8745 35.7821 41.0123 35.7673 41.1355 35.7526Z" fill="white"/>
<path d="M24.185 12.642C24.185 13.093 24.5402 13.4552 24.9825 13.4552H41.005C41.0557 13.4552 41.0992 13.4478 41.15 13.4405V16.5751C41.0992 16.5677 41.0557 16.5603 41.005 16.5603H24.9825C24.5402 16.5603 24.185 16.9226 24.185 17.3735C24.185 17.8245 24.5402 18.1868 24.9825 18.1868H41.005C41.0557 18.1868 41.0992 18.1794 41.15 18.172V21.3066C41.0992 21.2992 41.0557 21.2918 41.005 21.2918H24.9825C24.5402 21.2918 24.185 21.6541 24.185 22.105C24.185 22.556 24.5402 22.9183 24.9825 22.9183H41.005C41.0557 22.9183 41.0992 22.9109 41.15 22.9035V33.2685H23.2932C21.9447 33.2685 20.85 32.1521 20.85 30.777V4.73151H38.7067C40.0552 4.73151 41.15 5.84785 41.15 7.21555V11.8362C41.0992 11.8288 41.0557 11.8214 41.005 11.8214H24.9825C24.5402 11.8288 24.185 12.191 24.185 12.642Z" fill="white"/>
<path d="M40.7367 2.51361H20.9732C20.9297 2.51361 20.8935 2.51361 20.85 2.51361V30.777C20.85 32.1521 21.9447 33.2685 23.2932 33.2685H43.064C43.1075 33.2685 43.1437 33.2685 43.1872 33.2685V4.99766C43.18 3.62995 42.0852 2.51361 40.7367 2.51361ZM41.15 22.9035C41.0992 22.9109 41.0557 22.9183 41.005 22.9183H24.9825C24.5402 22.9183 24.185 22.556 24.185 22.1051C24.185 21.6541 24.5402 21.2918 24.9825 21.2918H41.005C41.0557 21.2918 41.0992 21.2992 41.15 21.3066C41.5197 21.3731 41.8025 21.7058 41.8025 22.1051C41.8025 22.5043 41.5197 22.837 41.15 22.9035ZM41.15 18.172C41.0992 18.1794 41.0557 18.1868 41.005 18.1868H24.9825C24.5402 18.1868 24.185 17.8245 24.185 17.3735C24.185 16.9226 24.5402 16.5603 24.9825 16.5603H41.005C41.0557 16.5603 41.0992 16.5677 41.15 16.5751C41.5197 16.6416 41.8025 16.9743 41.8025 17.3735C41.8025 17.7728 41.5197 18.1054 41.15 18.172ZM41.15 13.4405C41.0992 13.4479 41.0557 13.4552 41.005 13.4552H24.9825C24.5402 13.4552 24.185 13.093 24.185 12.642C24.185 12.191 24.5402 11.8288 24.9825 11.8288H41.005C41.0557 11.8288 41.0992 11.8362 41.15 11.8436C41.5197 11.9101 41.8025 12.2428 41.8025 12.642C41.8025 13.0412 41.5197 13.3739 41.15 13.4405Z" fill="white"/>
<path d="M43.0567 0H23.2932C21.9447 0 20.85 1.11634 20.85 2.48405V30.777C20.85 32.1521 21.9447 33.2685 23.2932 33.2685H43.064C43.1075 33.2685 43.1437 33.2685 43.1872 33.2685C44.4777 33.2019 45.5072 32.1152 45.5072 30.7844V2.48405C45.5 1.11634 44.4052 0 43.0567 0ZM41.15 22.9035C41.0992 22.9109 41.0557 22.9183 41.005 22.9183H24.9825C24.5402 22.9183 24.185 22.556 24.185 22.1051C24.185 21.6541 24.5402 21.2918 24.9825 21.2918H41.005C41.0557 21.2918 41.0992 21.2992 41.15 21.3066C41.5197 21.3732 41.8025 21.7058 41.8025 22.1051C41.8025 22.5043 41.5197 22.837 41.15 22.9035ZM41.15 18.172C41.0992 18.1794 41.0557 18.1868 41.005 18.1868H24.9825C24.5402 18.1868 24.185 17.8245 24.185 17.3735C24.185 16.9226 24.5402 16.5603 24.9825 16.5603H41.005C41.0557 16.5603 41.0992 16.5677 41.15 16.5751C41.5197 16.6416 41.8025 16.9743 41.8025 17.3735C41.8025 17.7728 41.5197 18.1054 41.15 18.172ZM41.15 13.4405C41.0992 13.4479 41.0557 13.4553 41.005 13.4553H24.9825C24.5402 13.4553 24.185 13.093 24.185 12.642C24.185 12.1911 24.5402 11.8288 24.9825 11.8288H41.005C41.0557 11.8288 41.0992 11.8362 41.15 11.8436C41.5197 11.9101 41.8025 12.2428 41.8025 12.642C41.8025 13.0412 41.5197 13.3739 41.15 13.4405Z" fill="white"/>
</g>
<path d="M6.162 67V52.31H0.858V48.8H15.522V52.31H10.062V67H6.162ZM20.7811 67.26C19.6371 67.26 18.6058 66.948 17.6871 66.324C16.7684 65.7 16.0404 64.8507 15.5031 63.776C14.9658 62.7013 14.6971 61.4707 14.6971 60.084C14.6971 58.6973 14.9658 57.4753 15.5031 56.418C16.0578 55.3433 16.8031 54.5027 17.7391 53.896C18.6751 53.272 19.7411 52.96 20.9371 52.96C21.6131 52.96 22.2284 53.064 22.7831 53.272C23.3551 53.4627 23.8491 53.7313 24.2651 54.078C24.6984 54.4247 25.0624 54.8233 25.3571 55.274C25.6518 55.7247 25.8598 56.21 25.9811 56.73L25.2011 56.6V53.246H28.8671V67H25.1491V63.698L25.9811 63.62C25.8424 64.1053 25.6171 64.5647 25.3051 64.998C24.9931 65.4313 24.6031 65.8213 24.1351 66.168C23.6844 66.4973 23.1731 66.766 22.6011 66.974C22.0291 67.1647 21.4224 67.26 20.7811 67.26ZM21.7951 64.062C22.4884 64.062 23.0951 63.8973 23.6151 63.568C24.1351 63.2387 24.5338 62.7793 24.8111 62.19C25.1058 61.5833 25.2531 60.8813 25.2531 60.084C25.2531 59.304 25.1058 58.6193 24.8111 58.03C24.5338 57.4407 24.1351 56.9813 23.6151 56.652C23.0951 56.3053 22.4884 56.132 21.7951 56.132C21.1191 56.132 20.5211 56.3053 20.0011 56.652C19.4984 56.9813 19.0998 57.4407 18.8051 58.03C18.5104 58.6193 18.3631 59.304 18.3631 60.084C18.3631 60.8813 18.5104 61.5833 18.8051 62.19C19.0998 62.7793 19.4984 63.2387 20.0011 63.568C20.5211 63.8973 21.1191 64.062 21.7951 64.062ZM32.5947 67V47.76H36.2867V67H32.5947ZM40.0595 67V47.76H43.7515V67H40.0595ZM49.0415 72.98L52.0575 65.908L52.1095 68.04L45.4015 53.246H49.5875L52.9415 61.176C53.0802 61.4707 53.2102 61.8173 53.3315 62.216C53.4702 62.5973 53.5828 62.97 53.6695 63.334L53.0455 63.594C53.1495 63.2993 53.2708 62.9613 53.4095 62.58C53.5482 62.1987 53.6868 61.7913 53.8255 61.358L56.7115 53.246H60.9235L55.1515 67L52.7855 72.98H49.0415Z" fill="white"/>
<defs>
<clipPath id="clip0_147_535">
<rect width="29" height="38" fill="white" transform="translate(16.5)"/>
</clipPath>
</defs>
</svg>
