<svg width="100" height="38" viewBox="0 0 100 38" fill="none" xmlns="http://www.w3.org/2000/svg">
<g clip-path="url(#clip0_104_57)">
<path d="M24.6355 35.7525C24.5195 37.0167 23.4755 38 22.2068 38H2.44325C1.09475 38 0 36.8836 0 35.5086V7.21555C0 5.98092 0.8845 4.9533 2.0445 4.76108C2.03 4.8424 2.03 4.92372 2.03 4.99765V33.2907C2.03 34.6657 3.12475 35.7821 4.47325 35.7821H24.244C24.3745 35.7821 24.5123 35.7673 24.6355 35.7525Z" fill="black"/>
<path d="M7.68501 12.642C7.68501 13.093 8.04026 13.4552 8.48251 13.4552H24.505C24.5558 13.4552 24.5993 13.4478 24.65 13.4405V16.5751C24.5993 16.5677 24.5558 16.5603 24.505 16.5603H8.48251C8.04026 16.5603 7.68501 16.9226 7.68501 17.3735C7.68501 17.8245 8.04026 18.1868 8.48251 18.1868H24.505C24.5558 18.1868 24.5993 18.1794 24.65 18.172V21.3066C24.5993 21.2992 24.5558 21.2918 24.505 21.2918H8.48251C8.04026 21.2918 7.68501 21.6541 7.68501 22.105C7.68501 22.556 8.04026 22.9183 8.48251 22.9183H24.505C24.5558 22.9183 24.5993 22.9109 24.65 22.9035V33.2685H6.79326C5.44476 33.2685 4.35001 32.1521 4.35001 30.777V4.73151H22.2068C23.5553 4.73151 24.65 5.84785 24.65 7.21555V11.8362C24.5993 11.8288 24.5558 11.8214 24.505 11.8214H8.48251C8.04026 11.8288 7.68501 12.191 7.68501 12.642Z" fill="#60B7FF"/>
<path d="M24.2368 2.51361H4.47326C4.42976 2.51361 4.39351 2.51361 4.35001 2.51361V30.777C4.35001 32.1521 5.44476 33.2685 6.79326 33.2685H26.564C26.6075 33.2685 26.6438 33.2685 26.6873 33.2685V4.99766C26.68 3.62995 25.5853 2.51361 24.2368 2.51361ZM24.65 22.9035C24.5993 22.9109 24.5558 22.9183 24.505 22.9183H8.48251C8.04026 22.9183 7.68501 22.556 7.68501 22.1051C7.68501 21.6541 8.04026 21.2918 8.48251 21.2918H24.505C24.5558 21.2918 24.5993 21.2992 24.65 21.3066C25.0198 21.3731 25.3025 21.7058 25.3025 22.1051C25.3025 22.5043 25.0198 22.837 24.65 22.9035ZM24.65 18.172C24.5993 18.1794 24.5558 18.1868 24.505 18.1868H8.48251C8.04026 18.1868 7.68501 17.8245 7.68501 17.3735C7.68501 16.9226 8.04026 16.5603 8.48251 16.5603H24.505C24.5558 16.5603 24.5993 16.5677 24.65 16.5751C25.0198 16.6416 25.3025 16.9743 25.3025 17.3735C25.3025 17.7728 25.0198 18.1054 24.65 18.172ZM24.65 13.4405C24.5993 13.4479 24.5558 13.4552 24.505 13.4552H8.48251C8.04026 13.4552 7.68501 13.093 7.68501 12.642C7.68501 12.191 8.04026 11.8288 8.48251 11.8288H24.505C24.5558 11.8288 24.5993 11.8362 24.65 11.8436C25.0198 11.9101 25.3025 12.2428 25.3025 12.642C25.3025 13.0412 25.0198 13.3739 24.65 13.4405Z" fill="#FED402"/>
<path d="M26.5568 0H6.79326C5.44476 0 4.35001 1.11634 4.35001 2.48405V30.777C4.35001 32.1521 5.44476 33.2685 6.79326 33.2685H26.564C26.6075 33.2685 26.6438 33.2685 26.6873 33.2685C27.9778 33.2019 29.0073 32.1152 29.0073 30.7844V2.48405C29 1.11634 27.9053 0 26.5568 0ZM24.65 22.9035C24.5993 22.9109 24.5558 22.9183 24.505 22.9183H8.48251C8.04026 22.9183 7.68501 22.556 7.68501 22.1051C7.68501 21.6541 8.04026 21.2918 8.48251 21.2918H24.505C24.5558 21.2918 24.5993 21.2992 24.65 21.3066C25.0198 21.3732 25.3025 21.7058 25.3025 22.1051C25.3025 22.5043 25.0198 22.837 24.65 22.9035ZM24.65 18.172C24.5993 18.1794 24.5558 18.1868 24.505 18.1868H8.48251C8.04026 18.1868 7.68501 17.8245 7.68501 17.3735C7.68501 16.9226 8.04026 16.5603 8.48251 16.5603H24.505C24.5558 16.5603 24.5993 16.5677 24.65 16.5751C25.0198 16.6416 25.3025 16.9743 25.3025 17.3735C25.3025 17.7728 25.0198 18.1054 24.65 18.172ZM24.65 13.4405C24.5993 13.4479 24.5558 13.4553 24.505 13.4553H8.48251C8.04026 13.4553 7.68501 13.093 7.68501 12.642C7.68501 12.1911 8.04026 11.8288 8.48251 11.8288H24.505C24.5558 11.8288 24.5993 11.8362 24.65 11.8436C25.0198 11.9101 25.3025 12.2428 25.3025 12.642C25.3025 13.0412 25.0198 13.3739 24.65 13.4405Z" fill="#8957F3"/>
</g>
<path d="M44.162 26V11.31H38.858V7.8H53.522V11.31H48.062V26H44.162ZM58.7811 26.26C57.6371 26.26 56.6058 25.948 55.6871 25.324C54.7684 24.7 54.0404 23.8507 53.5031 22.776C52.9658 21.7013 52.6971 20.4707 52.6971 19.084C52.6971 17.6973 52.9658 16.4753 53.5031 15.418C54.0578 14.3433 54.8031 13.5027 55.7391 12.896C56.6751 12.272 57.7411 11.96 58.9371 11.96C59.6131 11.96 60.2284 12.064 60.7831 12.272C61.3551 12.4627 61.8491 12.7313 62.2651 13.078C62.6984 13.4247 63.0624 13.8233 63.3571 14.274C63.6518 14.7247 63.8598 15.21 63.9811 15.73L63.2011 15.6V12.246H66.8671V26H63.1491V22.698L63.9811 22.62C63.8424 23.1053 63.6171 23.5647 63.3051 23.998C62.9931 24.4313 62.6031 24.8213 62.1351 25.168C61.6844 25.4973 61.1731 25.766 60.6011 25.974C60.0291 26.1647 59.4224 26.26 58.7811 26.26ZM59.7951 23.062C60.4884 23.062 61.0951 22.8973 61.6151 22.568C62.1351 22.2387 62.5338 21.7793 62.8111 21.19C63.1058 20.5833 63.2531 19.8813 63.2531 19.084C63.2531 18.304 63.1058 17.6193 62.8111 17.03C62.5338 16.4407 62.1351 15.9813 61.6151 15.652C61.0951 15.3053 60.4884 15.132 59.7951 15.132C59.1191 15.132 58.5211 15.3053 58.0011 15.652C57.4984 15.9813 57.0998 16.4407 56.8051 17.03C56.5104 17.6193 56.3631 18.304 56.3631 19.084C56.3631 19.8813 56.5104 20.5833 56.8051 21.19C57.0998 21.7793 57.4984 22.2387 58.0011 22.568C58.5211 22.8973 59.1191 23.062 59.7951 23.062ZM70.5947 26V6.76H74.2867V26H70.5947ZM78.0595 26V6.76H81.7515V26H78.0595ZM87.0415 31.98L90.0575 24.908L90.1095 27.04L83.4015 12.246H87.5875L90.9415 20.176C91.0802 20.4707 91.2102 20.8173 91.3315 21.216C91.4702 21.5973 91.5828 21.97 91.6695 22.334L91.0455 22.594C91.1495 22.2993 91.2708 21.9613 91.4095 21.58C91.5482 21.1987 91.6868 20.7913 91.8255 20.358L94.7115 12.246H98.9235L93.1515 26L90.7855 31.98H87.0415Z" fill="black"/>
<defs>
<clipPath id="clip0_104_57">
<rect width="29" height="38" fill="white"/>
</clipPath>
</defs>
</svg>
